<?xml version="1.0" standalone="no"?>
<!DOCTYPE svg PUBLIC "-//W3C//DTD SVG 20010904//EN"
 "http://www.w3.org/TR/2001/REC-SVG-20010904/DTD/svg10.dtd">
<svg version="1.0" xmlns="http://www.w3.org/2000/svg"
 width="200.000000pt" height="200.000000pt" viewBox="0 0 200.000000 200.000000"
 preserveAspectRatio="xMidYMid meet">
<metadata>
Created by potrace 1.13, written by Peter Selinger 2001-2015
</metadata>
<g transform="translate(0.000000,200.000000) scale(0.100000,-0.100000)"
fill="#000000" stroke="none">
<path d="M867 1840 c-334 -61 -585 -283 -684 -607 -23 -78 -26 -104 -26 -233
0 -129 3 -155 26 -233 89 -291 293 -495 584 -584 78 -23 104 -26 233 -26 129
0 155 3 233 26 291 89 495 293 584 584 23 78 26 104 26 233 0 129 -3 155 -26
233 -111 364 -414 600 -787 612 -63 2 -137 0 -163 -5z m281 -106 c284 -59 513
-280 583 -564 8 -31 14 -106 14 -170 0 -122 -12 -188 -52 -284 -90 -218 -291
-390 -523 -447 -71 -18 -269 -18 -340 0 -137 34 -267 109 -367 212 -331 343
-268 885 133 1149 161 105 362 143 552 104z"/>
<path d="M993 1701 c-18 -11 -37 -35 -44 -55 l-13 -35 -17 29 c-23 37 -54 53
-104 53 -70 0 -125 -54 -125 -123 l0 -31 -30 16 c-68 35 -152 3 -179 -69 -13
-34 -13 -44 0 -80 l15 -41 -43 4 c-39 3 -47 -1 -83 -37 -34 -34 -40 -46 -40
-81 0 -46 21 -95 47 -110 14 -8 12 -11 -18 -24 -53 -22 -79 -61 -79 -117 0
-56 26 -95 79 -117 30 -13 32 -16 18 -24 -26 -15 -47 -64 -47 -110 0 -35 6
-47 40 -81 36 -36 44 -40 83 -37 l43 4 -15 -41 c-13 -36 -13 -46 0 -80 27 -72
111 -104 179 -69 l30 16 0 -33 c0 -50 32 -93 82 -112 37 -15 49 -15 83 -4 24
8 48 25 60 45 l22 31 12 -35 c39 -107 216 -89 237 24 l6 34 23 -21 c66 -62
176 -32 206 57 8 24 8 42 0 64 -10 28 -9 30 7 23 113 -49 223 67 167 176 -8
15 -20 30 -27 33 -7 3 4 6 25 6 56 1 107 52 114 112 6 54 -16 104 -52 121 -14
6 -25 14 -25 18 0 4 11 12 25 18 36 17 58 67 52 121 -7 60 -58 111 -114 112
-21 0 -32 3 -25 6 7 3 19 18 27 33 56 109 -54 225 -167 176 -16 -7 -17 -5 -7
23 8 22 8 40 0 64 -30 90 -139 120 -206 57 l-23 -21 -6 34 c-15 80 -119 122
-193 78z m21 -217 c46 -22 96 -12 135 28 l31 32 0 -38 c0 -30 7 -45 34 -72 29
-29 41 -34 81 -34 25 0 55 5 65 10 18 9 18 8 8 -20 -24 -71 24 -147 101 -157
l41 -6 -23 -31 c-43 -60 -20 -155 44 -179 36 -14 36 -20 0 -34 -64 -24 -87
-119 -44 -179 l23 -31 -41 -6 c-77 -10 -125 -86 -101 -157 10 -28 10 -29 -8
-20 -10 5 -40 10 -65 10 -40 0 -52 -5 -81 -34 -26 -26 -34 -42 -34 -71 l0 -37
-30 31 c-58 58 -148 48 -189 -19 l-18 -31 -13 31 c-20 49 -65 80 -114 80 -23
0 -51 -7 -62 -15 -29 -22 -34 -18 -34 21 0 74 -66 132 -136 121 -19 -3 -34 -4
-34 -3 0 2 7 21 16 42 29 68 -12 143 -86 159 l-30 7 35 32 c31 30 35 39 35 86
0 46 -4 56 -34 86 l-33 33 28 6 c73 16 113 91 85 159 -9 21 -16 40 -16 42 0 1
15 0 34 -3 70 -11 136 47 136 121 0 39 5 43 34 21 11 -8 39 -15 62 -15 49 0
94 31 114 80 l13 31 18 -31 c11 -17 34 -38 53 -46z"/>
<path d="M897 1439 c-74 -17 -152 -62 -213 -123 -180 -180 -180 -452 0 -632
180 -179 451 -179 631 1 180 180 180 451 1 631 -112 112 -270 158 -419 123z
m257 -128 c75 -37 128 -91 165 -170 22 -47 26 -70 26 -141 0 -76 -4 -93 -33
-152 -38 -77 -92 -130 -171 -167 -47 -22 -70 -26 -141 -26 -71 0 -94 4 -141
26 -79 37 -133 90 -171 167 -29 59 -33 76 -33 152 0 71 4 94 26 140 87 186
293 260 473 171z"/>
</g>
</svg>
