<?xml version="1.0" standalone="no"?>
<!DOCTYPE svg PUBLIC "-//W3C//DTD SVG 20010904//EN"
 "http://www.w3.org/TR/2001/REC-SVG-20010904/DTD/svg10.dtd">
<svg version="1.0" xmlns="http://www.w3.org/2000/svg"
 width="128.000000pt" height="128.000000pt" viewBox="0 0 128.000000 128.000000"
 preserveAspectRatio="xMidYMid meet">
<metadata>
Created by potrace 1.13, written by Peter Selinger 2001-2015
</metadata>
<g transform="translate(0.000000,128.000000) scale(0.100000,-0.100000)"
fill="#000000" stroke="none">
<path d="M327 1180 c-14 -20 -47 -19 -47 1 0 5 -16 9 -35 9 -42 0 -47 -14 -43
-120 3 -75 3 -75 32 -78 16 -2 40 2 53 9 18 10 26 10 35 1 7 -7 27 -12 45 -12
29 0 33 -3 33 -25 0 -15 -18 -47 -44 -79 -61 -75 -81 -133 -80 -231 1 -91 19
-140 78 -218 30 -40 36 -55 36 -97 0 -54 -3 -58 -26 -35 -9 8 -24 15 -33 15
-34 0 -42 -24 -39 -117 3 -84 4 -88 27 -91 13 -2 35 2 47 9 13 7 25 10 26 8 2
-2 8 -13 14 -24 6 -11 24 -26 39 -34 38 -18 74 -5 100 36 19 30 23 32 80 32
58 1 61 -1 75 -32 21 -44 70 -58 108 -30 15 11 31 29 37 41 12 26 18 27 39 7
19 -19 73 -19 92 0 9 8 31 15 50 15 l35 0 -3 73 -3 72 -37 3 c-20 2 -42 10
-48 18 -16 18 -64 18 -80 -1 -25 -31 -40 -17 -40 36 0 43 5 57 34 91 64 74 81
121 81 228 0 111 -18 161 -85 234 -46 50 -52 91 -13 91 11 0 33 7 47 15 20 10
29 11 38 2 14 -14 80 -16 94 -3 5 5 25 11 44 13 l35 3 0 75 0 75 -35 3 c-19 2
-39 8 -44 13 -16 14 -74 10 -101 -7 -22 -14 -25 -14 -25 -1 0 8 -7 18 -16 21
-9 3 -139 6 -289 6 -264 0 -274 -1 -288 -20z m379 -329 c78 -35 136 -144 118
-219 -17 -70 -70 -135 -126 -155 -16 -5 -18 -20 -18 -102 l0 -95 -60 0 -60 0
0 94 0 95 -40 22 c-90 51 -126 169 -80 264 48 99 165 142 266 96z"/>
</g>
</svg>
