<?xml version="1.0" standalone="no"?>
<!DOCTYPE svg PUBLIC "-//W3C//DTD SVG 20010904//EN"
 "http://www.w3.org/TR/2001/REC-SVG-20010904/DTD/svg10.dtd">
<svg version="1.0" xmlns="http://www.w3.org/2000/svg"
 width="64.000000pt" height="64.000000pt" viewBox="0 0 64.000000 64.000000"
 preserveAspectRatio="xMidYMid meet">
<metadata>
Created by potrace 1.13, written by Peter Selinger 2001-2015
</metadata>
<g transform="translate(0.000000,64.000000) scale(0.100000,-0.100000)"
fill="#000000" stroke="none">
<path d="M415 613 c-104 -14 -193 -29 -196 -35 -6 -9 -60 -6 -176 8 l-43 5 0
-260 0 -259 38 -6 c20 -3 129 -17 242 -31 113 -14 222 -28 243 -31 l37 -6 0
256 0 256 40 0 40 0 0 65 c0 56 -3 65 -17 64 -10 -1 -103 -12 -208 -26z m-15
-168 c0 -35 0 -35 -45 -35 -38 0 -45 -3 -45 -20 0 -17 7 -20 45 -20 45 0 45 0
45 -35 0 -35 0 -35 -45 -35 -41 0 -45 -2 -45 -25 0 -23 4 -25 45 -25 45 0 45
0 45 -35 l0 -35 -85 0 -85 0 0 150 0 150 85 0 85 0 0 -35z"/>
</g>
</svg>
