/* XPM */
static char *edisondesigner[] = {
/* columns rows colors chars-per-pixel */
"64 64 249 2 ",
"   c #200B34",
".  c #200B35",
"X  c #210B35",
"o  c #210B36",
"O  c #210B37",
"+  c #210B38",
"@  c #220B38",
"#  c #220B39",
"$  c #230B3A",
"%  c #230B3B",
"&  c #220C38",
"*  c #230C3A",
"=  c #230B3C",
"-  c #230B3D",
";  c #240B3C",
":  c #240B3E",
">  c #250A3F",
",  c #240B3F",
"<  c #240C3C",
"1  c #240C3D",
"2  c #250A40",
"3  c #240B40",
"4  c #250B40",
"5  c #250A41",
"6  c #250A42",
"7  c #250A43",
"8  c #260B43",
"9  c #260C41",
"0  c #250945",
"q  c #260945",
"w  c #250A44",
"e  c #240A45",
"r  c #260A44",
"t  c #250946",
"y  c #250847",
"u  c #260946",
"i  c #260A47",
"p  c #250848",
"a  c #2C0F4B",
"s  c #2B1442",
"d  c #2D1543",
"f  c #2D1345",
"g  c #2D1147",
"h  c #2D1149",
"j  c #2F134A",
"k  c #2F124B",
"l  c #2F1548",
"z  c #31144B",
"x  c #33154A",
"c  c #33164A",
"v  c #32174B",
"b  c #30134C",
"n  c #31124E",
"m  c #31144C",
"M  c #31164C",
"N  c #33154E",
"B  c #35164D",
"V  c #34154E",
"C  c #35164F",
"Z  c #35174F",
"A  c #36174F",
"S  c #321949",
"D  c #36194D",
"F  c #361B4D",
"G  c #34184E",
"H  c #36184F",
"J  c #351A4F",
"K  c #361A4F",
"L  c #381A4D",
"P  c #391A4E",
"I  c #301051",
"U  c #381753",
"Y  c #371852",
"T  c #371853",
"R  c #371A54",
"E  c #391A50",
"W  c #3A1B51",
"Q  c #3B1B52",
"!  c #381C50",
"~  c #3C1C53",
"^  c #391B54",
"/  c #381956",
"(  c #3B1A57",
")  c #3D1A55",
"_  c #3B1F54",
"`  c #3D1C55",
"'  c #3C1D57",
"]  c #3E1D56",
"[  c #3F1D57",
"{  c #3A1859",
"}  c #3C1A58",
"|  c #3D1A5A",
" . c #3D2058",
".. c #3E205C",
"X. c #401D58",
"o. c #401C5B",
"O. c #411E5A",
"+. c #421E5B",
"@. c #401C5C",
"#. c #431F5C",
"$. c #431F5D",
"%. c #401F5F",
"&. c #441F5F",
"*. c #42235D",
"=. c #421D61",
"-. c #421F61",
";. c #431D62",
":. c #421E63",
">. c #471F66",
",. c #471F67",
"<. c #452060",
"1. c #462061",
"2. c #472163",
"3. c #452460",
"4. c #462064",
"5. c #482164",
"6. c #492165",
"7. c #4A2266",
"8. c #482765",
"9. c #4B2268",
"0. c #4C2369",
"q. c #4D236A",
"w. c #4D236B",
"e. c #4B2768",
"r. c #4D226E",
"t. c #4E226F",
"y. c #4E246D",
"u. c #4F246E",
"i. c #4B2869",
"p. c #4E2A6D",
"a. c #4F2C6C",
"s. c #50256F",
"d. c #503C63",
"f. c #512571",
"g. c #522672",
"h. c #532673",
"j. c #522576",
"k. c #532577",
"l. c #542674",
"z. c #552776",
"x. c #562777",
"c. c #572D77",
"v. c #572878",
"b. c #58287A",
"n. c #58287B",
"m. c #59297C",
"M. c #59287D",
"N. c #5A297D",
"B. c #5B2A7F",
"V. c #533072",
"C. c #593477",
"Z. c #5C307F",
"A. c #5C347C",
"S. c #5C387B",
"D. c #5E4C70",
"F. c #5A2980",
"G. c #5C2A80",
"H. c #5D2A81",
"J. c #5E2B82",
"K. c #5F2B84",
"L. c #5F2B85",
"P. c #602C85",
"I. c #612C86",
"U. c #622D87",
"Y. c #622D89",
"T. c #632D8A",
"R. c #622E8A",
"E. c #632E8B",
"W. c #642E8B",
"Q. c #652E8C",
"!. c #662F8E",
"~. c #672F8F",
"^. c #633C82",
"/. c #653488",
"(. c #64348A",
"). c #693D8C",
"_. c #6C3F8E",
"`. c #683190",
"'. c #693291",
"]. c #6B3492",
"[. c #6C3693",
"{. c #6D3793",
"}. c #6E3894",
"|. c #6F3A95",
" X c #703C96",
".X c #723D97",
"XX c #733F98",
"oX c #684287",
"OX c #6D458C",
"+X c #6E498C",
"@X c #724893",
"#X c #744A95",
"$X c #744199",
"%X c #754299",
"&X c #76449A",
"*X c #78459B",
"=X c #79479C",
"-X c #79489C",
";X c #7A489D",
":X c #7B4A9E",
">X c #7C4C9F",
",X c #7D4D9F",
"<X c #7C559B",
"1X c #7D559B",
"2X c #7F5C9B",
"3X c #7E4FA0",
"4X c #8B7C9B",
"5X c #8051A1",
"6X c #8152A2",
"7X c #8254A3",
"8X c #8355A4",
"9X c #8457A5",
"0X c #855FA1",
"qX c #8659A6",
"wX c #875AA6",
"eX c #885CA7",
"rX c #895DA8",
"tX c #8A5FA9",
"yX c #8861A5",
"uX c #8B60AA",
"iX c #8C61AA",
"pX c #8D62AB",
"aX c #8E64AC",
"sX c #8F65AC",
"dX c #9067AD",
"fX c #9169AE",
"gX c #926AAF",
"hX c #926EAD",
"jX c #936DAE",
"kX c #936CB0",
"lX c #956DB1",
"zX c #956EB1",
"xX c #966FB2",
"cX c #9770B2",
"vX c #9872B3",
"bX c #9974B4",
"nX c #9B75B5",
"mX c #9C77B6",
"MX c #9D79B7",
"NX c #9E7AB7",
"BX c #9E7AB8",
"VX c #9F7BB8",
"CX c #A07DB9",
"ZX c #A27FBA",
"AX c #A380BB",
"SX c #C4BECB",
"DX c #C5BECC",
"FX c gray100",
"GX c None",
/* pixels */
"GXGXGXGXGXGXGXGXGXGXGXGXGXGXGXGXGXGXGXGXGXGXGXGXGXGXGXGXGXGXGXGXGXGXGXGXGXGXGXGXGXGXGXGXGXGXGXGXGXGXGXGXGXGXGXGXGXGXGXGX{.].].!.",
"GXGXGXGXGXGXGXGXGXGXGXGXGXGXGXGXGXGXGXGXGXGXGXGXGXGXGXGXGXGXGXGXGXGXGXGXGXGXGXGXGXGXGXGXGXGXGXGXGXGXGXGX%X$XXX.X.X|.|.{.[.].].`.",
"GXGXGXGXGXGXGXGXGXGXGXGXGXGXGXGXGXGXGXGXGXGXGXGXGXGXGXGXGXGXGXGXGXGXGXGXGXGXGXGXGXGXGXGX3X>X,X:X:X&X;X%X%X$XXX.X|.|.|.{.[.].`.`.",
"GXGXGXGXGXGXGXGXGXGXGXGXGXGXGXGXGXGXGXGXGXGXGXGXGXGXGXGXGXGXGXGXGXGXGXGXrXqXqX9X6X9X6X6X3X3X:X:X;X;X;X%X%X$XXX.X X|.{.{.[.].].`.",
"GXGXGXGXGXGXGXGXGXGXGXGXGXGXGXGXGXGXGXGXGXGXGXGXGXGXGXGXfXdXsXaXiXuXuXrXeXwXqXqX6X6X6X6X3X,X3X:X;X;X*X&X%X%XXX.XXX|.{.{.[.].`.~.",
"!.!.Q.Q.GXGXGXGXGXGXGXGXGXGXGXGXGXGXGXGXmXvXvXcXcXxXkXfXfXdXsXaXiXuXuXrXeXqXqX9X9X9X6X6X3X3X:X:X;X*X*X&X%X%XXX.X|.|.{.{.[.].].`.",
"~.!.!.T.T.T.I.I.I.J.J.H.Z.OX2XhXBXBXmXmXnXvXvXcXxXxXkXkXfXdXsXaXiXiXrXrXeXqXqX9X6X6X6X5X3X,X:X:X;X*X&X&X%X$XXX.X|.|.|.{.[.].`.`.",
"~.!.Q.Q.T.T.I.I.I.L.J.H.p p p t w I { 4.a.S.+X0XxXkXkXfXfXdXsXsXiXiXuXrXeXqXqX9X9X6X6X3X3X,X,X;X;X;X*X&X%X$XXX.X X|.{.{.[.].`.`.",
"!.!.Q.Q.T.T.U.I.L.J.J.H.t p t p y u u t t u 0 0 t b / ..i.C.oX<XiXuXuXeXwXwXqXqX3XqX3X3X3X,X,X,X:X*X;X&X%X$XXX.X X|.{.{.[.].].~.",
"`.!.Q.R.T.R.U.I.L.I.J.H.p p p t y u u t q u 0 0 6 6 q q q > q > 6 z R ..8.V.^.#XqX3X8X3X3X5X,X;X;X;X&X&X%X$XXX.X X|.|.{.[.].].`.",
"!.!.Q.Q.T.T.U.I.I.I.J.H.p p y y y u u t q q q 0 w w q 3 : q q : , , 6 : : : % : : l !  .*.a.A._.*X:X&X&X%X$XXX.X X|.|.{.[.].`.`.",
"`.!.!.R.R.I.U.I.L.J.J.H.p p y y p u u t q q q q w 6 3 q : 0 : q 6 6 3 : : : : : % % : % $ $ $ + % s F _ *.e.c./. X|.{.{.[.].'.`.",
"!.!.Q.Q.T.T.I.I.L.K.J.H.p p y y t u u t q t t w w 6 w 6 : q : > , , , , , , : % % : % % % % + + o + o o o o     kXyX<X@X).(.E.E.",
"~.!.Q.Q.T.I.U.I.I.I.J.H.p p y y t t u t q t t w w w 6 w q : q : , 6 , , , , : % % % : % % % + o + + o o o o     nXmXBXBXBXVXZXAX",
"!.!.Q.T.T.T.I.I.L.J.H.H.p p y y t t t t q q t 6 w 6 w 6 q 0 q > , q , , < < < : : : % % & & & & + + + o &   . . nXmXBXBXVXVXZXAX",
"!.!.Q.Q.Q.T.I.I.L.I.H.H.p p y y t t t t q q t w w w 6 w : q : > 9 > , , , , > % % % % % % % % & + + o o . . . . nXmXBXVXVXVXZXAX",
"~.!.Q.Q.T.T.I.I.I.J.J.H.t p y y y t u t t r t 4XFXFXFXFXFXFXFXFXFXFXFXFXFXFXFXFXD.% % % $ $ + $ $ + o o o   o   nXnXMXMXCXCXCXAX",
"~.!.Q.T.T.I.I.I.L.I.J.H.p p y p y t u t t u q 4XFXFXFXFXFXFXFXFXFXFXFXFXFXFXFXFXD.: % % $ $ $ o + + o o o o     nXMXMXCXVXCXZXAX",
"~.!.Q.Q.T.T.T.I.L.J.J.H.p p p t y u u t q q q 4XFXFXFXFXFXFXFXFXFXFXFXFXFXFXFXFXD.% % % $ $ + $ $ + + o o   o   nXMXMXMXCXCXZXAX",
"~.!.Q.Q.T.R.I.I.I.L.J.H.p p t p y t u t q q q 4XFXFXFXFXFXFXFXFXFXFXFXFXFXFXFXFXD.: > $ $ $ $ o + + o o o o     nXnXMXMXVXCXZXAX",
"`.!.Q.R.T.R.I.I.I.J.J.H.p p y y y t t t q q 0 4XFXFXFXFXFXFXFXFXFXFXFXFXFXFXFXFXD.% : % $ $ + $ $ o o o o o     nXMXnXMXVXCXCXAX",
"!.!.Q.Q.T.I.U.I.L.I.J.H.p p y y y t t t 0 q 0 4XFXFXFXFXFXFXFXFXFXFXFXFXFXFXFXFXD.% % % $ $ $ o + + + o o o o   nXnXBXCXVXCXZXAX",
"`.Q.Q.Q.Q.T.U.I.L.J.H.H.p p y y y u t t 0 q 0 4XFXFXFXFXFXFXFXSXSXSXSXSXSXSXSXSXd.% % % $ $ + $ $ + o o o o o   nXnXMXMXCXCXZXAX",
"~.!.Q.R.T.R.U.I.I.I.H.H.p p y y y u t 0 0 q 0 4XFXFXFXFXFXFXFXq 6 > : q : : % : : % : % $ $ $ o o + o o o o     nXMXMXVXVXCXZXAX",
"~.!.Q.Q.Q.T.I.I.I.I.J.J.p p y y y u u t 0 q 0 4XFXFXFXFXFXFXFX: , 6 6 , , < < , < + > % % % + $ + + o o o   o   nXnXBXBXCXCXCXZX",
"~.!.Q.Q.R.I.I.I.L.J.J.B.p p y y y u u t 0 q 0 4XFXFXFXFXFXFXFXq , , , , , , % < , > % % % % $ o + + o o o o     nXMXnXBXCXCXZXZX",
"!.!.Q.T.T.T.U.I.I.J.J.J.p p y y y u u t 0 q 0 4XFXFXFXFXFXFXFX> 6 , , 6 , , : : < + % % & $ + $ $ + o o o o     nXMXMXBXCXCXZXAX",
"`.Q.Q.Q.T.R.U.I.L.J.J.J.p p y y y u u t 0 q 0 4XFXFXFXFXFXFXFXSXDXDXSXSXSXSXSXSX% : % % + $ $ o + + o o o   o   nXnXMXCXCXCXZXAX",
"!.!.Q.Q.T.I.U.I.I.J.J.H.t p y y y u u t t r q 4XFXFXFXFXFXFXFXFXFXFXFXFXFXFXFXFX> + > % $ $ $ o $ + o o o   o   nXMXMXBXCXCXCXZX",
"~.!.Q.T.T.T.I.I.I.L.J.B.p p y p y u u t y q q 4XFXFXFXFXFXFXFXFXFXFXFXFXFXFXFXFX$ > + > $ $ + $ o + o o o o     nXnXMXBXVXCXZXZX",
"~.!.Q.Q.T.I.I.I.L.L.J.J.p p p t y u u t q q q 4XFXFXFXFXFXFXFXFXFXFXFXFXFXFXFXFX> + > $ $ $ $ o $ + + o o   o o nXnXCXMXCXCXZXZX",
"~.!.Q.Q.T.T.T.I.I.J.J.J.p p t p y u u t q q q 4XFXFXFXFXFXFXFXFXFXFXFXFXFXFXFXFX$ > $ $ $ $ + $ + + o o o o   o nXMXnXBXCXZXZXZX",
"!.!.Q.Q.T.T.U.P.P.H.H.H.p p y y t t t t 0 q 0 4XFXFXFXFXFXFXFXFXFXFXFXFXFXFXFXFX% : % % % % + $ o + + o o o     vXMXMXMXCXCXCXAX",
"~.!.Q.Q.T.T.U.T.P.P.P.H.p p y y y t t t 0 q 0 4XFXFXFXFXFXFXFXFXFXFXFXFXFXFXFXFX% : % % % % $ o $ o o o o   o   nXMXMXVXVXCXAXAX",
"~.!.!.T.T.U.P.P.P.P.H.H.p p y y y t t t 0 q 0 4XFXFXFXFXFXFXFXq > q , , : : + > % % : % % $ + $ + + + o o o     nXMXMXMXVXCXZXAX",
"~.!.T.!.T.U.T.P.P.P.P.H.p p y y y u q 0 0 q 0 4XFXFXFXFXFXFXFX: , > , , : : : : : % % % & + $ o $ + o o o   o   nXnXMXMXVXCXZXAX",
"~.!.Q.Q.T.U.U.U.P.P.H.H.p p y y y u u t 0 q 0 4XFXFXFXFXFXFXFXq , : 3 : : : : % $ > % % $ $ $ o o + o o o o o   nXnXMXMXVXCXZXAX",
"~.!.Q.Q.T.U.U.P.P.H.H.H.p p y y y u u t 0 q 0 4XFXFXFXFXFXFXFX> , q 3 3 : : : : < > % % $ $ + $ $ + + o o o     nXnXMXCXVXCXZXAX",
"!.!.Q.T.T.T.U.P.P.H.P.B.p p y y y u u t 0 q 0 4XFXFXFXFXFXFXFXq 6 > 3 3 : : % : < + + < $ $ $ o o + + o o o     nXMXMXMXVXCXZXAX",
"!.!.Q.Q.T.T.U.P.P.P.P.H.p p y y y u u t 0 q 0 4XFXFXFXFXFXFXFXSXSXSXSXSXSXSXSXSXd.% > > $ $ + $ $ o o o o o o   nXnXMXVXVXCXZXAX",
"~.!.Q.Q.T.T.I.I.P.P.H.H.p p y y y u u t q q q 4XFXFXFXFXFXFXFXFXFXFXFXFXFXFXFXFXD.: : + $ $ $ o + + o o o   o   nXMXMXBXCXCXCXAX",
"~.!.Q.T.T.I.I.I.P.H.H.H.p p y y y u u t q q q 4XFXFXFXFXFXFXFXFXFXFXFXFXFXFXFXFXD.+ + : $ $ + $ $ + + o o o     nXnXMXBXVXCXZXAX",
"~.!.Q.Q.T.T.T.I.P.P.P.H.p p y y y u u t 0 q q 4XFXFXFXFXFXFXFXFXFXFXFXFXFXFXFXFXD.: : + $ $ $ o o + o o o o     nXnXBXBXCXCXZXAX",
"~.!.Q.Q.T.T.I.I.P.P.H.H.p p y y y u u t 0 q q 4XFXFXFXFXFXFXFXFXFXFXFXFXFXFXFXFXD.+ : : $ $ + $ $ + o o o   o   nXMXBXBXVXCXZXAX",
"!.!.Q.Q.T.T.I.I.P.P.H.H.p y y y t t t t 0 q 0 4XFXFXFXFXFXFXFXFXFXFXFXFXFXFXFXFXD.: % % % % $ o o + o o o   o   nXnXMXBXVXCXCXAX",
"`.!.Q.R.T.I.I.I.P.H.H.H.p y y y t t t t 0 q 0 4XFXFXFXFXFXFXFXFXFXFXFXFXFXFXFXFXD.+ % % % % + $ $ o + o o o     nXnXMXMXVXCXZXAX",
"!.!.Q.Q.Q.T.R.I.P.P.P.H.p p y y y u t t 0 q 0 0 q 3 : 0 : q > q q > , , > : : : > % % % % $ + o + + o o o   &   nXMXBXCXCXCXZXAX",
"`.!.Q.Q.I.R.I.I.P.P.H.H.p p y y y u t 0 0 q 0 0 3 0 q q : 0 : q , > , , : : : % % : : % & + + $ $ + + o o     & nXnXnXVXVXCXZXAX",
"!.!.Q.Q.T.T.I.I.L.J.J.J.t p p t y u u t t r 0 0 0 3 q 3 : q : : : : 3 : : : : : : % % % $ $ + + o + o o o o     nXnXMXBXBXCXAXAX",
"~.!.Q.Q.T.T.U.I.L.I.J.J.t p t p y u u t q u 0 0 3 q 3 q 0 q > q 3 0 3 3 : : % % % % : % $ $ + + $ o + o         nXmXBXBXGXGXGXGX",
"!.!.Q.T.T.I.U.I.I.I.J.B.p p p y y u u t q q q 0 6 6 q 3 q : q : 6 > 3 : : : : : < % < % $ $ + + % s S ! ' 4.w.B.GXGXGXGXGXGXGXGX",
"!.!.Q.Q.Q.R.U.I.L.J.J.J.p p y y y u u t q q q q w t 3 q : q : q 6 > 3 : : : : > + l z Y ^ @.>.n.P.I.I.T.T.T.!.!.GXGXGXGXGXGXGXGX",
"`.!.Q.Q.T.I.I.I.P.P.K.H.p p y y y t u t 0 q q q w w 6 w 6 6 q > , f b F E ( =.w.B.n.B.B.B.H.H.H.P.I.U.R.Q.R.Q.!.GXGXGXGXGXGXGXGX",
"!.!.Q.T.T.T.I.I.P.P.H.H.p p y y t t u t 0 q q q 6 h b b Y E | 2.f.f.l.l.z.x.x.n.n.n.n.B.H.H.J.I.P.I.I.T.T.Q.Q.!.GXGXGXGXGXGXGXGX",
"~.!.Q.Q.T.I.I.I.P.K.H.H.y y y y t a k n l b U o.7.9.9.w.w.y.y.s.f.h.l.l.z.x.x.n.n.B.B.B.H.H.H.K.P.I.I.I.T.R.Q.!.GXGXGXGXGXGXGXGX",
"~.!.Q.Q.T.T.T.I.M.w.;.^ A A A ( #.&.&.*.<.7.>.7.7.e.w.w.w.y.y.f.f.f.f.l.z.x.x.n.n.n.n.B.H.H.H.P.P.I.I.Q.T.Q.Q.!.GXGXGXGXGXGXGXGX",
"K.l.>.| A x x F ( Q Q X.X.X.#.#.#.#.&.<.<.7.<.7.7.7.0.0.w.y.s.s.f.g.f.z.z.v.v.v.n.B.B.B.B.H.H.P.I.I.U.I.T.Q.Q.!.GXGXGXGXGXGXGXGX",
"GXGXGXGXP P E E Q Q ' X.X.X.#.X.#.#.&.<.<.<.7.>.7.0.0.w.w.y.w.s.f.g.l.l.z.z.v.n.n.v.n.B.B.H.H.K.I.I.U.T.T.T.Q.!.GXGXGXGXGXGXGXGX",
"GXGXGXGXGXGXGXGXGXGXGXGX' #.' #.&.#.&.<.<.2.7.7.7.0.w.w.w.y.w.f.f.g.h.z.z.z.v.n.n.B.n.B.H.H.H.P.L.I.I.R.T.R.Q.!.GXGXGXGXGXGXGXGX",
"GXGXGXGXGXGXGXGXGXGXGXGXGXGXGXGXGXGXGXGX<.7.<.7.7.7.w.w.w.y.s.s.f.g.h.h.z.v.z.n.n.v.B.B.B.H.H.P.I.I.I.T.T.Q.Q.!.GXGXGXGXGXGXGXGX",
"GXGXGXGXGXGXGXGXGXGXGXGXGXGXGXGXGXGXGXGXGXGXGXGXGXGXGXGXy.y.s.s.f.f.f.x.z.x.n.n.v.B.B.B.B.J.J.L.J.I.U.R.T.Q.Q.!.GXGXGXGXGXGXGXGX",
"GXGXGXGXGXGXGXGXGXGXGXGXGXGXGXGXGXGXGXGXGXGXGXGXGXGXGXGXGXGXGXGXGXGXGXGXz.v.z.n.v.B.B.B.B.J.J.J.U.I.U.U.T.T.Q.!.GXGXGXGXGXGXGXGX",
"GXGXGXGXGXGXGXGXGXGXGXGXGXGXGXGXGXGXGXGXGXGXGXGXGXGXGXGXGXGXGXGXGXGXGXGXGXGXGXGXGXGXGXGXH.H.J.L.I.I.U.R.T.Q.!.!.GXGXGXGXGXGXGXGX",
"GXGXGXGXGXGXGXGXGXGXGXGXGXGXGXGXGXGXGXGXGXGXGXGXGXGXGXGXGXGXGXGXGXGXGXGXGXGXGXGXGXGXGXGXGXGXGXGXGXGXGXGXT.T.Q.!.GXGXGXGXGXGXGXGX"
};
