<?xml version="1.0" standalone="no"?>
<!DOCTYPE svg PUBLIC "-//W3C//DTD SVG 20010904//EN"
 "http://www.w3.org/TR/2001/REC-SVG-20010904/DTD/svg10.dtd">
<svg version="1.0" xmlns="http://www.w3.org/2000/svg"
 width="512.000000pt" height="512.000000pt" viewBox="0 0 512.000000 512.000000"
 preserveAspectRatio="xMidYMid meet">
<metadata>
Created by potrace 1.13, written by Peter Selinger 2001-2015
</metadata>
<g transform="translate(0.000000,512.000000) scale(0.100000,-0.100000)"
fill="#000000" stroke="none">
<path d="M135 4255 c-74 -26 -124 -114 -109 -192 4 -22 21 -52 43 -74 20 -21
166 -118 324 -217 l289 -179 1 -109 c2 -100 5 -115 34 -176 17 -36 53 -88 80
-115 71 -73 2889 -1828 2988 -1862 58 -19 83 -22 145 -18 84 6 164 32 217 73
28 21 39 25 52 16 9 -6 164 -103 345 -216 326 -204 330 -206 385 -206 66 0
108 22 138 71 45 74 37 152 -19 206 -28 26 -642 416 -671 426 -6 2 -6 16 2 39
19 58 15 181 -8 251 -23 68 -77 145 -131 188 -40 32 -2843 1780 -2899 1808
-133 67 -309 48 -435 -47 l-53 -40 -264 165 c-385 241 -376 237 -454 208z"/>
</g>
</svg>
